<?xml version="1.0" standalone="no"?>
<!DOCTYPE svg PUBLIC "-//W3C//DTD SVG 20010904//EN"
 "http://www.w3.org/TR/2001/REC-SVG-20010904/DTD/svg10.dtd">
<svg version="1.0" xmlns="http://www.w3.org/2000/svg"
 width="1440.000000pt" height="1440.000000pt" viewBox="0 0 1440.000000 1440.000000"
 preserveAspectRatio="xMidYMid meet">
<metadata>
Created by potrace 1.11, written by Peter Selinger 2001-2013
</metadata>
<g transform="translate(0.000000,1440.000000) scale(0.100000,-0.100000)"
fill="#000000" stroke="none">
<path d="M1045 14375 c-273 -56 -481 -168 -670 -359 -193 -195 -302 -405 -355
-684 -20 -107 -20 -111 -20 -6132 0 -6021 0 -6025 20 -6132 54 -281 168 -500
364 -693 195 -193 405 -302 684 -355 107 -20 111 -20 6132 -20 6021 0 6025 0
6132 20 281 54 500 168 693 364 193 195 302 405 355 684 20 107 20 111 20
6132 0 6021 0 6025 -20 6132 -54 281 -168 500 -364 693 -195 193 -405 302
-684 355 -107 20 -109 20 -6142 19 l-6035 -1 -110 -23z m6330 -660 c571 -73
1108 -284 1548 -607 50 -38 96 -68 103 -68 6 0 25 7 43 16 17 9 46 17 64 19
17 3 55 9 82 15 85 19 105 21 270 27 123 4 185 2 270 -11 229 -35 482 -92 560
-126 11 -5 47 -17 80 -26 49 -13 228 -79 310 -114 11 -4 95 -44 186 -89 92
-45 170 -81 173 -81 3 0 29 -16 57 -35 27 -20 60 -40 72 -46 12 -5 42 -23 67
-39 25 -16 54 -34 65 -40 11 -6 40 -24 65 -40 25 -16 61 -39 80 -50 56 -33 84
-52 141 -97 30 -23 100 -76 156 -118 56 -41 115 -88 130 -103 15 -15 69 -63
118 -107 50 -44 91 -83 93 -86 1 -4 49 -53 105 -110 56 -58 127 -138 159 -180
31 -41 64 -81 73 -89 10 -8 34 -39 54 -70 20 -30 54 -79 75 -109 131 -185 243
-457 272 -656 15 -107 12 -229 -8 -307 -11 -44 -10 -51 20 -115 284 -621 229
-1285 -156 -1873 -112 -172 -197 -275 -373 -454 l-166 -169 28 -43 c16 -23 36
-62 45 -86 18 -51 45 -182 51 -253 3 -27 10 -56 15 -62 7 -9 7 -13 -1 -13 -6
0 -11 -10 -11 -23 0 -25 -56 -189 -88 -258 -11 -24 -39 -69 -61 -99 -23 -30
-45 -64 -50 -75 -13 -29 -228 -245 -284 -285 -27 -19 -63 -47 -80 -61 -18 -14
-57 -40 -87 -58 -30 -19 -57 -37 -60 -40 -19 -25 -305 -176 -420 -222 -41 -16
-84 -34 -95 -39 -80 -36 -144 -59 -250 -90 -22 -6 -62 -18 -90 -26 -45 -13
-106 -27 -315 -69 -169 -35 -343 -63 -425 -70 -49 -4 -103 -9 -120 -11 -82 -9
-379 -3 -535 11 -135 13 -439 71 -456 88 -4 4 -18 7 -31 7 -13 0 -44 9 -67 20
-64 29 -118 35 -152 17 -69 -36 -352 -121 -514 -155 -206 -44 -588 -100 -607
-90 -4 3 -39 1 -78 -3 -114 -14 -585 -10 -805 6 -288 22 -623 70 -835 119 -11
3 -74 17 -140 31 -495 105 -966 268 -1420 491 -293 144 -472 252 -761 462
-120 87 -350 298 -444 408 -212 246 -341 481 -401 729 -27 109 -30 332 -6 428
l15 59 -58 122 c-274 577 -266 1147 26 1716 227 445 620 844 1187 1207 l138
88 53 130 c386 963 1262 1673 2331 1889 116 23 336 52 460 60 120 7 493 -4
610 -19z m-848 -7980 c501 -65 896 -321 1082 -700 75 -152 95 -240 95 -415 0
-167 -18 -253 -84 -395 -112 -243 -311 -437 -585 -570 -511 -250 -1122 -211
-1592 101 -205 136 -368 343 -444 562 -32 93 -59 231 -59 304 0 78 37 248 76
346 166 420 622 720 1174 775 90 9 229 6 337 -8z m-1400 -2260 c321 -52 595
-266 704 -549 67 -174 79 -315 41 -476 -71 -300 -291 -541 -584 -638 -129 -43
-222 -56 -353 -49 -250 13 -460 110 -631 290 -141 147 -218 328 -230 537 -13
221 81 456 250 625 213 212 508 308 803 260z m-1407 -1742 c194 -53 345 -205
399 -403 26 -94 26 -156 0 -250 -45 -164 -149 -293 -290 -363 -176 -87 -353
-87 -529 -1 -179 88 -310 294 -310 489 0 118 61 270 147 365 138 154 375 220
583 163z"/>
</g>
</svg>
